<svg xmlns="http://www.w3.org/2000/svg" xmlns:xlink="http://www.w3.org/1999/xlink" width="500" zoomAndPan="magnify" viewBox="0 0 375 374.999991" height="500" preserveAspectRatio="xMidYMid meet" version="1.2"><g id="91525979f6"><rect x="0" width="375" y="0" height="374.999991" style="fill:#ffffff;fill-opacity:1;stroke:none;"/><rect x="0" width="375" y="0" height="374.999991" style="fill:#ffffff;fill-opacity:1;stroke:none;"/><path style=" stroke:none;fill-rule:evenodd;fill:#0087dc;fill-opacity:1;" d="M -83.746094 -91.996094 C 96.90625 -91.996094 277.558594 -91.996094 458.210938 -91.996094 C 458.210938 88.65625 458.210938 269.308594 458.210938 449.960938 C 277.558594 449.960938 96.90625 449.960938 -83.746094 449.960938 C -83.746094 269.308594 -83.746094 88.65625 -83.746094 -91.996094 Z M -83.746094 -91.996094 "/><path style=" stroke:none;fill-rule:evenodd;fill:#ffffff;fill-opacity:1;" d="M 187.761719 21.792969 C 231.570312 47.316406 275.320312 72.984375 319.015625 98.800781 C 307.546875 105.769531 296.082031 112.734375 284.613281 119.703125 C 252.285156 100.675781 220.089844 81.445312 188.023438 62.015625 C 156.667969 80.914062 125.351562 99.878906 94.082031 118.910156 C 93.265625 119.539062 92.382812 119.714844 91.4375 119.441406 C 80.144531 112.558594 68.855469 105.679688 57.5625 98.800781 C 101.082031 73.25 144.480469 47.582031 187.761719 21.792969 Z M 187.761719 21.792969 "/><path style=" stroke:none;fill-rule:evenodd;fill:#ffffff;fill-opacity:1;" d="M 187.761719 106.472656 C 207.578125 118.058594 227.335938 129.792969 247.039062 141.667969 C 227.367188 153.710938 207.605469 165.617188 187.761719 177.394531 C 168.179688 165.484375 148.597656 153.578125 129.011719 141.667969 C 148.628906 129.921875 168.210938 118.191406 187.761719 106.472656 Z M 187.761719 106.472656 "/><path style=" stroke:none;fill-rule:evenodd;fill:#ffffff;fill-opacity:1;" d="M 323.777344 180.570312 C 323.425781 208.746094 323.070312 236.972656 322.71875 265.25 C 280.25 290.429688 237.910156 315.832031 195.699219 341.460938 C 194.992188 329.820312 194.992188 318.175781 195.699219 306.53125 C 227.5625 287.109375 259.492188 267.789062 291.496094 248.578125 C 292.105469 242.179688 292.195312 235.738281 291.757812 229.261719 C 259.785156 248.558594 227.761719 267.785156 195.699219 286.949219 C 195.082031 253.785156 194.992188 220.617188 195.433594 187.449219 C 237.953125 162.046875 280.46875 136.640625 322.984375 111.238281 C 323.425781 125.53125 323.339844 139.820312 322.71875 154.105469 C 290.964844 172.804688 259.210938 191.507812 227.453125 210.207031 C 226.75 219.027344 226.75 227.847656 227.453125 236.671875 C 259.25 217.582031 291.179688 198.707031 323.25 180.039062 C 323.570312 180.105469 323.746094 180.28125 323.777344 180.570312 Z M 323.777344 180.570312 "/><path style=" stroke:none;fill-rule:evenodd;fill:#ffffff;fill-opacity:1;" d="M 53.859375 264.71875 C 53.683594 251.398438 53.859375 238.167969 54.386719 225.027344 C 86.128906 244.78125 117.882812 264.539062 149.65625 284.304688 C 150.359375 277.597656 150.359375 270.894531 149.65625 264.191406 C 117.679688 244.808594 85.835938 225.226562 54.125 205.445312 C 54.035156 174.09375 53.769531 142.777344 53.328125 111.5 C 95.816406 136.40625 138.15625 161.722656 180.351562 187.449219 C 180.707031 200.449219 181.058594 213.417969 181.410156 226.351562 C 181.144531 226.4375 180.878906 226.527344 180.617188 226.613281 C 149.398438 207.566406 118.171875 188.511719 86.9375 169.453125 C 86.585938 175.453125 86.585938 181.453125 86.9375 187.449219 C 118.304688 206.644531 149.53125 226.050781 180.617188 245.667969 C 180.96875 277.777344 180.96875 309.882812 180.617188 341.992188 C 138.394531 316.164062 96.140625 290.40625 53.859375 264.71875 Z M 53.859375 264.71875 "/><path style=" stroke:none;fill-rule:evenodd;fill:#ffffff;fill-opacity:1;" d="M 323.777344 180.570312 C 324.128906 208.976562 323.777344 237.203125 322.71875 265.25 C 323.070312 236.972656 323.425781 208.746094 323.777344 180.570312 Z M 323.777344 180.570312 "/><path style=" stroke:none;fill-rule:evenodd;fill:#ffffff;fill-opacity:1;" d="M 54.386719 225.027344 C 53.859375 238.167969 53.683594 251.398438 53.859375 264.71875 C 53.15625 251.398438 53.15625 237.992188 53.859375 224.496094 C 54.179688 224.5625 54.355469 224.738281 54.386719 225.027344 Z M 54.386719 225.027344 "/></g></svg>